<?xml version="1.0" standalone="no"?>
<!DOCTYPE svg PUBLIC "-//W3C//DTD SVG 20010904//EN"
 "http://www.w3.org/TR/2001/REC-SVG-20010904/DTD/svg10.dtd">
<svg version="1.0" xmlns="http://www.w3.org/2000/svg"
 width="1280.000000pt" height="1280.000000pt" viewBox="0 0 1280.000000 1280.000000"
 preserveAspectRatio="xMidYMid meet">
<metadata>
Created by potrace 1.16, written by Peter Selinger 2001-2019
</metadata>
<g transform="translate(0.000000,1280.000000) scale(0.100000,-0.100000)"
fill="#000000" stroke="none">
<path d="M6150 12603 c-928 -48 -1756 -266 -2555 -673 -610 -311 -1125 -689
-1611 -1182 -689 -699 -1187 -1518 -1489 -2448 -448 -1382 -398 -2890 140
-4230 575 -1431 1629 -2577 3003 -3264 695 -348 1407 -551 2222 -633 248 -25
883 -25 1127 0 841 86 1571 299 2293 670 1208 620 2215 1667 2785 2897 409
881 601 1790 582 2755 -8 405 -40 718 -112 1080 -282 1423 -1029 2679 -2140
3602 -930 772 -2077 1258 -3280 1392 -313 35 -694 49 -965 34z m4458 -3018
c129 -30 163 -81 142 -214 -19 -121 -66 -316 -145 -606 -95 -348 -104 -368
-168 -402 -41 -21 -152 -28 -221 -13 -49 10 -67 20 -107 60 -88 88 -106 159
-74 283 20 78 19 94 -10 122 -30 30 -57 31 -159 5 -241 -62 -472 -243 -579
-455 -76 -152 -297 -813 -297 -889 0 -14 10 -34 22 -46 21 -19 33 -20 444 -20
273 0 442 -4 476 -11 94 -20 188 -139 188 -237 0 -27 -4 -62 -9 -78 -6 -16
-58 -191 -117 -389 -58 -198 -115 -376 -124 -395 -37 -73 -90 -94 -224 -88
-72 3 -99 8 -128 26 -45 28 -102 101 -124 159 -15 39 -16 52 -4 113 17 88 7
114 -47 129 -22 6 -145 11 -293 11 -235 0 -258 -2 -287 -20 -40 -24 -41 -25
-101 -205 -76 -225 -79 -232 -167 -460 -203 -525 -503 -1071 -764 -1391 -15
-18 -37 -47 -51 -65 -105 -140 -437 -491 -600 -635 -261 -231 -561 -434 -877
-592 -605 -303 -1252 -440 -1849 -392 -678 55 -1279 305 -1685 702 -122 120
-160 163 -255 293 -200 274 -321 555 -403 940 -24 108 -41 318 -41 490 1 662
238 1184 705 1557 357 284 837 438 1370 438 489 0 1012 -151 1485 -430 52 -31
110 -62 127 -69 55 -22 62 -13 60 81 -1 77 2 89 40 175 23 50 51 123 63 160
28 91 50 126 96 149 38 18 80 19 1119 25 751 4 1088 9 1106 17 36 15 63 62 89
157 36 130 146 454 185 544 58 136 151 301 217 386 225 289 417 470 730 691
170 120 226 154 381 234 173 90 310 137 507 174 54 10 287 -2 358 -19z"/>
<path d="M10191 9475 c-266 -58 -579 -228 -946 -514 -100 -79 -339 -306 -411
-391 -232 -276 -342 -514 -518 -1118 -24 -85 -46 -156 -49 -158 -2 -3 -525 -7
-1161 -11 -1058 -6 -1156 -8 -1156 -23 0 -30 -59 -199 -94 -269 l-35 -69 35
-65 34 -65 78 -7 c459 -40 812 -175 1052 -401 136 -128 219 -261 262 -419 29
-108 31 -323 4 -440 -17 -73 -60 -202 -71 -213 -3 -3 -98 89 -212 204 -654
659 -1033 972 -1513 1249 -361 208 -690 332 -1047 396 -150 27 -478 37 -650
20 -498 -50 -905 -237 -1215 -559 -278 -288 -434 -635 -479 -1061 -17 -162 -6
-534 20 -671 41 -224 100 -407 190 -595 259 -541 694 -918 1306 -1135 480
-170 1075 -205 1619 -94 441 90 887 277 1316 553 343 220 727 579 1044 975
276 344 501 728 695 1186 34 80 69 161 78 180 36 81 143 382 229 643 l56 169
396 -5 c376 -4 459 -10 485 -36 15 -15 9 -99 -14 -186 -12 -44 -22 -85 -23
-92 0 -7 17 -37 39 -68 l40 -56 94 3 c91 3 95 4 102 28 31 104 53 177 99 330
28 96 72 241 96 322 24 80 44 151 44 157 0 7 -19 36 -41 66 l-41 55 -560 0
-560 0 7 32 c31 138 250 822 314 982 92 226 192 353 374 477 170 117 315 169
494 176 l122 6 32 -32 c31 -31 31 -34 26 -104 -2 -40 -15 -113 -27 -163 l-23
-91 43 -57 42 -56 94 0 94 0 6 28 c4 15 31 113 60 217 106 371 191 740 173
751 -5 3 -43 11 -85 19 -94 18 -278 18 -363 0z m-6119 -2684 c815 -142 1773
-811 2797 -1956 20 -22 76 -86 125 -143 l88 -103 39 6 c25 4 39 3 39 -4 0 -27
-284 -336 -415 -451 -131 -115 -302 -239 -450 -327 -477 -284 -1090 -407
-1730 -348 -669 62 -1200 297 -1607 711 -163 167 -258 297 -347 479 -199 402
-243 934 -109 1313 106 302 339 566 627 712 121 60 324 116 486 134 89 9 344
-4 457 -23z m4055 -25 c5 -5 -92 -363 -143 -524 -117 -371 -237 -671 -384
-957 -136 -265 -220 -398 -141 -224 74 163 135 406 150 602 25 299 -45 545
-227 802 -59 83 -182 216 -246 265 -25 19 -45 39 -46 44 0 7 1030 -1 1037 -8z"/>
<path d="M3555 6685 c-463 -66 -829 -381 -965 -828 -59 -196 -57 -577 6 -820
59 -232 174 -460 325 -642 89 -108 216 -234 309 -305 25 -19 47 -37 50 -41 3
-3 39 -28 80 -55 418 -278 847 -404 1430 -421 809 -23 1445 225 2004 783 129
129 152 166 135 211 -8 22 -86 122 -119 153 -3 3 -43 48 -90 100 -169 190
-430 457 -625 640 -713 670 -1440 1105 -2025 1211 -143 26 -386 33 -515 14z"/>
<path d="M7500 6653 c-67 -14 -64 -54 10 -166 76 -115 126 -218 165 -340 20
-59 41 -117 48 -127 32 -53 66 -2 126 189 92 293 101 324 101 366 0 70 -7 73
-230 78 -107 3 -206 3 -220 0z"/>
<path d="M6003 6653 c-62 -12 -27 -61 125 -175 210 -157 443 -367 831 -747
137 -134 152 -145 186 -137 33 8 40 38 39 171 0 131 -16 192 -82 319 -99 192
-336 377 -607 473 -172 61 -422 110 -492 96z"/>
</g>
</svg>
